#!OML:ASF F:\VICON\USERDATA\INSTALL\rory3\rory3.ASF
:FULLY-SPECIFIED
:DEGREES
117
root 1.5160881349412474 17.936255411572503 56.85012101052875 -3.6254813348114148 2.8064490615569824 -3.7419713002163775
lfemur -15.800060698050963 -2.6869908787767667 -17.934541343360703
ltibia 48.79797927049431
lfoot -11.631882810075846 1.421934321264572
ltoes -16.360220548463793
rfemur -6.940520521358823 -0.36786235142781054 26.958597797585547
rtibia 36.094993010330235
rfoot -11.289360355376408 -10.866911697302463
rtoes -2.3120427565625983
lowerback 10.102966940888452 -0.4307176657219183 1.5996874963450618
upperback -0.3145000892936331 0.3208543721248578 1.8098266062310373
thorax -6.042871714657895 0.23674013168385255 0.638889066251289
lowerneck -16.365419627185712 -3.9416897454805184 -1.5507922830054142
upperneck 21.45574216964641 -5.525558581587498 1.4353023398944005
head 9.648591817745796 -2.4687661394720584 0.00663065567613369
lclavicle -2.4965060872806643e-15 -2.732062684647755e-15
lhumerus -30.40403597040896 2.335776363633879 82.39788218392462
lradius 24.4701654754597
lwrist 11.645091513602566
lhand -29.894011264880334 18.116725250108125
lfingers nan
lthumb -2.896926782440492 48.577889142803876
rclavicle -2.6247325018285972e-15 -2.8127245253720044e-15
rhumerus -30.950066801789156 -21.267372719063477 -75.75708719198578
rradius 33.28664000468102
rwrist 1.0830413302737236
rhand -17.5051705678732 22.40968355720105
rfingers nan
rthumb 8.682950280947658 -7.442787299818763
118
root 1.4860399703624227 17.9301213650926 54.689272707006666 -3.648098609147036 2.7586356172968376 -3.9549440007233594
lfemur -15.522606838081655 -2.876934101671008 -18.109871901282727
ltibia 43.77913357426799
lfoot -10.914544367159916 1.6782693017002779
ltoes -17.63179463080126
rfemur -7.486887699653144 -0.20307117299727162 27.211737726919633
rtibia 37.96769834864778
rfoot -9.368498192082347 -10.486898864772689
rtoes -1.1798591034574444
lowerback 10.076812696352416 -0.37672852119998435 1.6938333537495258
upperback -0.34845732776385185 0.3482728659081057 1.7193838010811568
thorax -6.0315446128058925 0.2373945713569906 0.4918886126815528
lowerneck -16.30414966403108 -3.9506214705947214 -1.590552700979056
upperneck 21.546244345182455 -5.551446549786992 1.5326581687491825
head 9.679340554300898 -2.476078271939355 0.040511089458604904
lclavicle -2.4987917314863305e-15 -2.7335663971341648e-15
lhumerus -30.25625758834518 2.320357702175502 82.37759427447348
lradius 24.732470885518772
lwrist 11.667374894762215
lhand -29.96614047932108 17.82921001085863
lfingers nan
lthumb -2.8593127271552206 48.55037251293777
rclavicle -2.619412889924716e-15 -2.810039646234745e-15
rhumerus -30.68362604199057 -20.86093348612555 -75.8227705758759
rradius 33.34736359017399
rwrist 0.8052907576755408
rhand -17.4931334425683 22.42338672877402
rfingers nan
rthumb 8.696342866075748 -7.414083920753955
119
root 1.4498012541318832 17.919077219839277 53.24165024841783 -3.6223729112965763 2.526667901640886 -4.076437118696582
lfemur -14.90705165481684 -2.904418432200346 -18.190114178836534
ltibia 38.57843047328916
lfoot -11.364638708858784 0.013593400040840642
ltoes -17.64049373294649
rfemur -8.389792209997092 0.12025817898362146 27.413751882108798
rtibia 40.24502887918821
rfoot -7.905903880846608 -10.457639325083953
rtoes 0.26641859195473816
lowerback 10.060571990978906 -0.3426635882455471 1.684304529672752
upperback -0.3735793705027101 0.332460391482425 1.6659182102674386
thorax -6.038365851297758 0.21981789584391045 0.4318056152356642
lowerneck -16.28774744352857 -3.9530224498853923 -1.6128362604478217
upperneck 21.582170102509387 -5.566431844747124 1.6462080123066285
head 9.691248798093639 -2.4780710186680315 0.08244846284058091
lclavicle -2.5002491631733595e-15 -2.7347021454751515e-15
lhumerus -30.092450577607345 2.2158890529216007 82.32444714720984
lradius 25.00748136128907
lwrist 11.47993795874566
lhand -29.84169533676292 18.001919958035707
lfingers nan
lthumb -2.8231873631811313 48.48128656444121
rclavicle -2.614799599929283e-15 -2.8084112895647898e-15
rhumerus -30.495063443476763 -20.411647971933505 -75.76808919205236
rradius 33.4319643732536
rwrist 1.0361806497980148
rhand -17.488013537254037 22.467873844591338
rfingers nan
rthumb 8.707160329581933 -7.343126305373483
120
root 1.4274008982427864 17.91494047300747 52.3251020259537 -3.597131683296884 2.3144920576207726 -3.9969361381260278
lfemur -13.89334783711029 -2.8776082154135123 -18.447292383949968
ltibia 33.775513799684475
lfoot -10.331758529767152 0.08488541482524248
ltoes -17.64174929130114
rfemur -9.60389388751867 0.25653679133629503 27.282986113942723
rtibia 42.82101239320471
rfoot -7.201257040110287 -10.690092967142874
rtoes 1.7685997914734053
lowerback 10.046697295779186 -0.35228082642080527 1.514471551448922
upperback -0.3863731438636892 0.2592878805718406 1.641728852722513
thorax -6.046946115534772 0.1846769506641757 0.4961601607581738
lowerneck -16.306374387368717 -3.952244151291379 -1.6231122729834149
upperneck 21.5633744784315 -5.5754692528944245 1.7737238100104622
head 9.68454874597338 -2.476105391603823 0.13049058128829838
lclavicle -2.5031074211726443e-15 -2.7363327088021616e-15
lhumerus -29.942259957247334 2.067154215837001 82.24475998462412
lradius 25.298316141335345
lwrist 11.220570223698834
lhand -29.89515681344597 17.7918435397918
lfingers nan
lthumb -2.783342654184086 48.45887936765755
rclavicle -2.612963066501709e-15 -2.8076090218119694e-15
rhumerus -30.40818020979197 -20.033312315077588 -75.64751009233726
rradius 33.53523020431298
rwrist 1.6098990198220413
rhand -17.486065269878488 22.542577108731454
rfingers nan
rthumb 8.708555772449243 -7.245491981262503
121
root 1.4129179522805493 17.9176654734863 52.180958082669186 -3.583803885181472 2.2939441286428996 -3.953177242501501
lfemur -12.779358588798381 -2.920959876456269 -18.824759562172932
ltibia 30.091499585976564
lfoot -9.83896538561829 -0.5775200708803818
ltoes -18.2926244156214
rfemur -11.047425724379547 0.05125634549139768 26.981299580341922
rtibia 45.514984680571494
rfoot -7.101348139923298 -10.882104368560656
rtoes 2.9660030560728123
lowerback 10.034851073449158 -0.4195840938202755 1.3416412980120223
upperback -0.39193276830544443 0.1502239065273278 1.6472743598836277
thorax -6.0531298857519396 0.1315116338785769 0.5933204777934247
lowerneck -16.34753600431815 -3.948368592961592 -1.6268707689771134
upperneck 21.50022430725415 -5.57831289804544 1.9073246949068317
head 9.664231701299707 -2.4702513292477413 0.18099505554957135
lclavicle -2.507374039147011e-15 -2.7383955718654203e-15
lhumerus -29.764867119531175 1.9667285293560566 82.17795622855354
lradius 25.58812233356337
lwrist 11.067482723694363
lhand -29.761930533864458 18.092377932459975
lfingers nan
lthumb -2.7612876879893817 48.446571302737716
rclavicle -2.6121378917255073e-15 -2.806324119512365e-15
rhumerus -30.34055172882041 -19.787155463541502 -75.50249924197578
rradius 33.634948888956245
rwrist 2.213970916940548
rhand -17.49739708841192 22.58884387022572
rfingers nan
rthumb 8.710836526340499 -7.16181318358356
122
root 1.3976845946144398 17.916213057045 52.3710917896087 -3.641729099131015 2.4373909626538968 -3.523005211431986
lfemur -11.472341531179602 -3.08450977145345 -19.72722578028436
ltibia 27.835833237712095
lfoot -9.326417211950009 -0.7558979495657128
ltoes -17.429061775213533
rfemur -12.350580954102751 -0.4315172940460097 26.259371072948685
rtibia 47.93305629507867
rfoot -7.3792672129642725 -10.84612514195083
rtoes 3.77748291051274
lowerback 10.052748493538749 -0.539338817781887 0.9113171836515113
upperback -0.38418792476322117 -0.10163818824054 1.615766032102682
thorax -6.060964094795283 0.02189142267344374 0.8446695180024473
lowerneck -16.40562953323341 -3.9390142868029225 -1.622015160253739
upperneck 21.410976062275957 -5.5701928231782505 2.030326731621315
head 9.639235660790343 -2.4595220079237197 0.22797908574746673
lclavicle -2.511479658864268e-15 -2.7402251252419393e-15
lhumerus -29.56766431851804 1.8538974156081849 82.12452117615264
lradius 25.865586208195264
lwrist 10.889051396317669
lhand -29.797726226122588 17.967796713779652
lfingers nan
lthumb -2.7333852399326206 48.47151714973731
rclavicle -2.6125249570935536e-15 -2.805410897574199e-15
rhumerus -30.386361632890857 -19.719681729479873 -75.41578226085063
rradius 33.70941196289445
rwrist 2.38114227960365
rhand -17.501995620999917 22.592756973620506
rfingers nan
rthumb 8.70523493711885 -7.157697854939735
123
root 1.4284837916623168 17.928056648378952 55.78825183708327 -3.582371159019603 3.017065931005744 -2.1686153413354816
lfemur -9.758473255118194 -3.45395741588432 -21.619745928880803
ltibia 26.723259982504004
lfoot -9.996710868461289 -1.7550109030989667
ltoes -17.028639307068996
rfemur -13.487276662068101 -1.3039625533260213 24.444551411798365
rtibia 49.8813554908042
rfoot -7.814863603575809 -10.479111431835872
rtoes 4.378558707658024
lowerback 10.047200566048591 -0.8065477502366699 -0.15458548790003468
upperback -0.3541960483231818 -0.6692771585894519 1.4867595699528333
thorax -6.065864293646418 -0.2415590557575313 1.3336193605584892
lowerneck -16.478502628425055 -3.9210462835228506 -1.609804858632263
upperneck 21.316024039301602 -5.544787047533804 2.126818047626075
head 9.618887882805488 -2.4426406301329315 0.2666609593452383
lclavicle -2.5167309433746523e-15 -2.742236775074041e-15
lhumerus -29.402968975999215 1.6485923093309118 82.0609015659173
lradius 26.110405659345272
lwrist 10.513433503479913
lhand -29.650430833873607 18.246804916257947
lfingers nan
lthumb -2.7094909264211395 48.43544298099439
rclavicle -2.6156921571043702e-15 -2.8047506558316487e-15
rhumerus -30.537399387113727 -19.803776284047714 -75.4286515810518
rradius 33.74649732041087
rwrist 2.4509619299551697
rhand -17.522226842903443 22.51166139807527
rfingers nan
rthumb 8.6917688217586 -7.244437640515807
